<svg width="100%" height="100%" viewBox="0 0 60 52" fill="none" xmlns="http://www.w3.org/2000/svg">
<path d="M41.9308 13.1435C41.4758 19.2806 36.8234 24.2871 31.7159 24.2871C26.6085 24.2871 21.9479 19.2818 21.501 13.1435C21.0367 6.75922 25.5637 2 31.7159 2C37.8681 2 42.3951 6.87529 41.9308 13.1435Z" stroke="#000" stroke-width="3" stroke-linecap="round" stroke-linejoin="round"/>
<path d="M31.7166 31.7163C21.6177 31.7163 11.368 37.2881 9.47129 47.8048C9.23913 49.0724 9.95998 50.2889 11.2879 50.2889H52.1464" stroke="#000" stroke-width="3" stroke-miterlimit="10"/>
<path d="M15.0008 23.3588H2M8.50039 16.8584V29.8592V16.8584Z" stroke="#000" stroke-width="3" stroke-linecap="round" stroke-linejoin="round"/>
<mask id="path-4-outside-1" maskUnits="userSpaceOnUse" x="35" y="22" width="25" height="25" fill="black">
<rect fill="white" x="35" y="22" width="25" height="25"/>
<path d="M58.598 33.7335L57.156 33.499C57.0629 33.4832 56.9772 33.4377 56.9116 33.3692C56.8459 33.3007 56.8037 33.2127 56.7911 33.1182C56.7634 32.9396 56.7358 32.7604 56.6971 32.5873C56.6784 32.4944 56.6891 32.3979 56.7278 32.3115C56.7666 32.2251 56.8312 32.1532 56.9127 32.1061L58.1894 31.3904C58.2861 31.3405 58.3613 31.2566 58.401 31.1546C58.4407 31.0527 58.4422 30.9395 58.4051 30.8365L58.1839 30.2224C58.1469 30.1192 58.0732 30.0334 57.9772 29.9819C57.8812 29.9303 57.7696 29.9165 57.6641 29.9433L56.2326 30.2224C56.1395 30.2406 56.0432 30.2281 55.9576 30.1868C55.8721 30.1455 55.802 30.0776 55.7577 29.993C55.6747 29.8367 55.5863 29.6801 55.4923 29.5235C55.4426 29.442 55.4197 29.3468 55.4266 29.2514C55.4336 29.156 55.4701 29.0652 55.531 28.992L56.487 27.8788C56.5611 27.7991 56.6037 27.6948 56.6068 27.5855C56.6099 27.4762 56.5731 27.3696 56.5035 27.2859L56.0894 26.7834C56.0204 26.6989 55.9226 26.6434 55.8153 26.6278C55.7079 26.6122 55.5986 26.6377 55.5088 26.6991L54.2543 27.46C54.1736 27.5083 54.0799 27.5294 53.9865 27.5204C53.8932 27.5114 53.8052 27.4726 53.7351 27.4098C53.6024 27.292 53.4641 27.1748 53.3259 27.0625C53.2524 27.0036 53.1993 26.9225 53.1745 26.831C53.1496 26.7396 53.1543 26.6426 53.1877 26.5539L53.7074 25.1722C53.7516 25.0719 53.7578 24.9588 53.7246 24.8543C53.6915 24.7497 53.6214 24.6612 53.5277 24.6055L52.9637 24.2756C52.8696 24.2216 52.7592 24.2044 52.6533 24.2271C52.5474 24.2499 52.4535 24.311 52.3892 24.399L51.4692 25.5624C51.4178 25.6357 51.3435 25.6893 51.2582 25.7146C51.1729 25.7399 51.0817 25.7355 50.9992 25.702C50.9992 25.702 50.6896 25.5736 50.4573 25.4949C50.3683 25.4649 50.2909 25.4071 50.2366 25.3298C50.1822 25.2525 50.1536 25.1598 50.1549 25.065L50.177 23.5883C50.1835 23.4785 50.15 23.3701 50.0828 23.2835C50.0155 23.1969 49.9193 23.1381 49.8121 23.1183L49.1712 23.0066C49.064 22.9879 48.9536 23.0093 48.8609 23.067C48.7682 23.1247 48.6997 23.2146 48.6681 23.3198L48.1926 24.7183C48.162 24.8085 48.1038 24.8864 48.0263 24.9407C47.9488 24.9951 47.8561 25.023 47.7618 25.0203H47.22C47.1258 25.0223 47.0334 24.9942 46.956 24.94C46.8786 24.8857 46.8203 24.8081 46.7892 24.7183L46.3137 23.3198C46.2821 23.2146 46.2135 23.1247 46.1209 23.067C46.0282 23.0093 45.9178 22.9879 45.8106 23.0066L45.1697 23.1183C45.0625 23.1381 44.9662 23.1969 44.899 23.2835C44.8318 23.3701 44.7983 23.4785 44.8048 23.5883L44.8269 25.065C44.8282 25.16 44.7995 25.253 44.7449 25.3304C44.6903 25.4078 44.6127 25.4656 44.5234 25.4954C44.3962 25.5457 44.1197 25.6523 43.987 25.7026C43.8322 25.7584 43.6497 25.7137 43.5004 25.5401L42.5876 24.4046C42.523 24.3169 42.4289 24.2562 42.3231 24.2339C42.2172 24.2116 42.107 24.2292 42.0131 24.2834L41.4491 24.6134C41.3552 24.668 41.2846 24.7557 41.2509 24.8597C41.2172 24.9637 41.2228 25.0766 41.2666 25.1767L41.7864 26.5584C41.8193 26.6471 41.8236 26.744 41.7988 26.8353C41.774 26.9266 41.7213 27.0077 41.6481 27.067C41.5099 27.1787 41.3717 27.2965 41.239 27.4143C41.1689 27.4771 41.0808 27.5158 40.9875 27.5249C40.8942 27.5339 40.8004 27.5128 40.7198 27.4645L39.4835 26.6918C39.3932 26.6319 39.2843 26.6073 39.1773 26.6229C39.0704 26.6384 38.9728 26.6929 38.9029 26.7761L38.4887 27.2786C38.4192 27.3624 38.3824 27.469 38.3855 27.5782C38.3885 27.6875 38.4312 27.7918 38.5053 27.8715L39.4613 28.9847C39.5235 29.0573 39.5608 29.1483 39.5678 29.244C39.5748 29.3397 39.551 29.4352 39.5 29.5162C39.406 29.6651 39.3176 29.8216 39.2346 29.9857C39.1895 30.0696 39.1193 30.137 39.034 30.1782C38.9487 30.2195 38.8527 30.2324 38.7597 30.2152L37.3282 29.936C37.2227 29.9101 37.1115 29.9241 37.0156 29.9756C36.9198 30.0271 36.846 30.1124 36.8084 30.2152L36.5872 30.8293C36.5501 30.9323 36.5516 31.0454 36.5913 31.1474C36.631 31.2494 36.7062 31.3332 36.8029 31.3831L38.0779 32.0994C38.1602 32.1456 38.2257 32.2174 38.2645 32.304C38.3033 32.3907 38.3135 32.4877 38.2936 32.5806C38.2604 32.7593 38.2272 32.9329 38.1996 33.1115C38.1863 33.2058 38.1438 33.2933 38.0783 33.3617C38.0128 33.4301 37.9275 33.4758 37.8346 33.4923L36.3926 33.7268C36.2853 33.7401 36.1864 33.7923 36.1142 33.8736C36.0421 33.9548 36.0015 34.0598 36 34.1689V34.8232C35.9987 34.9332 36.0383 35.0397 36.111 35.1216C36.1837 35.2034 36.2842 35.2548 36.3926 35.2654L37.8346 35.4999C37.9277 35.5157 38.0134 35.5612 38.0791 35.6297C38.1447 35.6982 38.1869 35.7862 38.1996 35.8806C38.2272 36.0593 38.2549 36.2385 38.2936 36.4116C38.3123 36.5045 38.3015 36.601 38.2628 36.6874C38.2241 36.7738 38.1594 36.8457 38.0779 36.8928L36.8012 37.6096C36.7046 37.6595 36.6293 37.7434 36.5896 37.8454C36.5499 37.9473 36.5485 38.0605 36.5856 38.1635L36.8067 38.7776C36.8437 38.8808 36.9174 38.9666 37.0134 39.0181C37.1094 39.0697 37.221 39.0835 37.3265 39.0567L38.758 38.7776C38.8511 38.7594 38.9475 38.7719 39.033 38.8132C39.1185 38.8545 39.1886 38.9224 39.233 39.007C39.3159 39.1633 39.4044 39.3199 39.4984 39.4765C39.548 39.558 39.571 39.6532 39.564 39.7486C39.5571 39.844 39.5206 39.9348 39.4597 40.008L38.5037 41.1224C38.4295 41.202 38.3869 41.3064 38.3838 41.4156C38.3808 41.5249 38.4175 41.6315 38.4871 41.7153L38.9012 42.2177C38.9702 42.3022 39.068 42.3577 39.1754 42.3733C39.2827 42.3889 39.392 42.3635 39.4818 42.302L40.7364 41.5411C40.817 41.4928 40.9108 41.4717 41.0041 41.4807C41.0974 41.4897 41.1855 41.5285 41.2556 41.5913C41.3883 41.7091 41.5265 41.8264 41.6647 41.9386C41.7383 41.9976 41.7913 42.0786 41.8161 42.1701C41.841 42.2615 41.8364 42.3586 41.803 42.4472L41.2832 43.8289C41.2397 43.9293 41.2342 44.0423 41.2679 44.1465C41.3015 44.2507 41.3719 44.3387 41.4657 44.3939L42.0297 44.7239C42.1238 44.7778 42.2342 44.7951 42.3401 44.7723C42.446 44.7496 42.5399 44.6884 42.6042 44.6005L43.5325 43.4482C43.6486 43.303 43.8366 43.2416 43.9859 43.303C44.1739 43.3812 44.3011 43.4258 44.5333 43.5046C44.6227 43.5344 44.7003 43.5922 44.7549 43.6696C44.8095 43.747 44.8382 43.84 44.8369 43.935L44.8147 45.4117C44.8082 45.5215 44.8417 45.6299 44.909 45.7165C44.9762 45.8031 45.0725 45.8619 45.1797 45.8817L45.8205 45.9934C45.9278 46.0121 46.0381 45.9907 46.1308 45.933C46.2235 45.8753 46.2921 45.7854 46.3237 45.6802L46.7992 44.2845C46.8297 44.1943 46.8879 44.1164 46.9654 44.0621C47.0429 44.0077 47.1356 43.9798 47.2299 43.9825H47.7718C47.866 43.9804 47.9584 44.0086 48.0357 44.0628C48.1131 44.1171 48.1715 44.1947 48.2025 44.2845L48.678 45.6802C48.7096 45.7854 48.7782 45.8753 48.8709 45.933C48.9635 45.9907 49.0739 46.0121 49.1812 45.9934L49.822 45.8817C49.9292 45.8619 50.0255 45.8031 50.0927 45.7165C50.1599 45.6299 50.1935 45.5215 50.1869 45.4117L50.1648 43.935C50.1635 43.84 50.1922 43.747 50.2468 43.6696C50.3014 43.5922 50.379 43.5344 50.4684 43.5046C50.7006 43.4258 50.8554 43.3644 50.9992 43.3086C51.143 43.2528 51.3199 43.2528 51.4581 43.4258L52.3981 44.5949C52.4626 44.6832 52.5571 44.7443 52.6635 44.7668C52.7698 44.7892 52.8806 44.7714 52.9748 44.7166L53.5388 44.3866C53.6332 44.3321 53.7041 44.2441 53.7378 44.1397C53.7716 44.0353 53.7656 43.9219 53.7212 43.8217L53.2015 42.4399C53.1686 42.3511 53.1643 42.2542 53.1891 42.1628C53.2139 42.0714 53.2666 41.9902 53.3397 41.9308C53.478 41.8191 53.6162 41.7019 53.7489 41.5841C53.819 41.5212 53.9071 41.4825 54.0004 41.4735C54.0937 41.4644 54.1874 41.4856 54.2681 41.5338L55.5182 42.297C55.6085 42.357 55.7174 42.3815 55.8244 42.366C55.9313 42.3504 56.0289 42.2959 56.0988 42.2127L56.5129 41.7102C56.5825 41.6265 56.6193 41.5199 56.6162 41.4106C56.6131 41.3013 56.5705 41.197 56.4964 41.1173L55.5404 40.0041C55.4782 39.9315 55.4409 39.8406 55.4339 39.7448C55.4269 39.6491 55.4507 39.5537 55.5017 39.4726C55.5956 39.3219 55.6841 39.1654 55.7671 39.0031C55.8121 38.9192 55.8824 38.8518 55.9677 38.8106C56.053 38.7694 56.149 38.7565 56.242 38.7737L57.6735 39.0528C57.779 39.0788 57.8902 39.0647 57.9861 39.0132C58.0819 38.9617 58.1557 38.8765 58.1933 38.7737L58.4145 38.1595C58.4516 38.0566 58.4501 37.9434 58.4104 37.8414C58.3707 37.7395 58.2955 37.6556 58.1988 37.6057L56.9221 36.89C56.8398 36.8438 56.7744 36.772 56.7355 36.6854C56.6967 36.5987 56.6865 36.5017 56.7065 36.4088C56.7396 36.2301 56.7728 36.0565 56.8005 35.8778C56.8137 35.7836 56.8562 35.6961 56.9217 35.6277C56.9873 35.5593 57.0726 35.5136 57.1654 35.4971L58.6074 35.2626C58.7147 35.2493 58.8136 35.1971 58.8858 35.1158C58.958 35.0345 58.9985 34.9296 59 34.8205V34.165C58.994 34.0568 58.9504 33.9543 58.8768 33.8753C58.8033 33.7964 58.7046 33.7462 58.598 33.7335ZM47.5008 26.4607C49.2669 26.46 50.9829 27.0528 52.3783 28.1457C53.7737 29.2387 54.7691 30.7695 55.2075 32.4969C55.2401 32.6286 55.2425 32.7661 55.2146 32.8989C55.1867 33.0317 55.1292 33.1564 55.0464 33.2634C54.9636 33.3704 54.8578 33.4569 54.7369 33.5164C54.616 33.5759 54.4833 33.6068 54.3488 33.6067H48.5298C48.3736 33.6068 48.22 33.565 48.085 33.4856C47.9499 33.4063 47.838 33.2923 47.7607 33.1551L44.88 28.0351C44.8129 27.916 44.7738 27.783 44.7658 27.6463C44.7577 27.5096 44.7809 27.3729 44.8336 27.2466C44.8862 27.1204 44.9669 27.0081 45.0694 26.9184C45.1719 26.8287 45.2934 26.764 45.4246 26.7292C46.1023 26.5497 46.8002 26.4595 47.5008 26.4607ZM39.5387 34.5C39.5378 33.4236 39.7509 32.3579 40.1655 31.3662C40.58 30.3745 41.1877 29.4769 41.9523 28.7268C42.0488 28.6303 42.1661 28.5575 42.295 28.5141C42.4238 28.4708 42.5609 28.458 42.6955 28.4767C42.8301 28.4954 42.9586 28.5452 43.071 28.6222C43.1835 28.6991 43.2769 28.8012 43.344 28.9205L46.2324 34.0534C46.3088 34.1883 46.3489 34.341 46.3489 34.4964C46.3489 34.6518 46.3088 34.8044 46.2324 34.9394L43.3202 40.0588C43.2526 40.1778 43.1588 40.2794 43.046 40.3558C42.9332 40.4323 42.8045 40.4815 42.6699 40.4996C42.5353 40.5177 42.3983 40.5043 42.2697 40.4604C42.141 40.4165 42.0241 40.3433 41.9279 40.2464C41.1708 39.4975 40.5694 38.6034 40.1591 37.6166C39.7489 36.6298 39.5379 35.5702 39.5387 34.5ZM47.5008 42.5393C46.788 42.5411 46.078 42.4482 45.3892 42.2629C45.2581 42.2277 45.1367 42.1625 45.0345 42.0724C44.9322 41.9822 44.8519 41.8695 44.7998 41.743C44.7476 41.6165 44.7249 41.4796 44.7336 41.3428C44.7422 41.206 44.7819 41.0731 44.8496 40.9543L47.7568 35.8432C47.8346 35.7072 47.9465 35.5944 48.0812 35.5159C48.216 35.4375 48.3688 35.3964 48.5243 35.3966H54.3516C54.486 35.3966 54.6187 35.4276 54.7395 35.4871C54.8603 35.5466 54.9661 35.6332 55.0488 35.7402C55.1315 35.8472 55.189 35.9718 55.2169 36.1046C55.2448 36.2373 55.2423 36.3748 55.2097 36.5065C54.7704 38.2335 53.7744 39.7637 52.3786 40.856C50.9829 41.9483 49.2668 42.5405 47.5008 42.5393Z"/>
</mask>
<path d="M58.598 33.7335L57.156 33.499C57.0629 33.4832 56.9772 33.4377 56.9116 33.3692C56.8459 33.3007 56.8037 33.2127 56.7911 33.1182C56.7634 32.9396 56.7358 32.7604 56.6971 32.5873C56.6784 32.4944 56.6891 32.3979 56.7278 32.3115C56.7666 32.2251 56.8312 32.1532 56.9127 32.1061L58.1894 31.3904C58.2861 31.3405 58.3613 31.2566 58.401 31.1546C58.4407 31.0527 58.4422 30.9395 58.4051 30.8365L58.1839 30.2224C58.1469 30.1192 58.0732 30.0334 57.9772 29.9819C57.8812 29.9303 57.7696 29.9165 57.6641 29.9433L56.2326 30.2224C56.1395 30.2406 56.0432 30.2281 55.9576 30.1868C55.8721 30.1455 55.802 30.0776 55.7577 29.993C55.6747 29.8367 55.5863 29.6801 55.4923 29.5235C55.4426 29.442 55.4197 29.3468 55.4266 29.2514C55.4336 29.156 55.4701 29.0652 55.531 28.992L56.487 27.8788C56.5611 27.7991 56.6037 27.6948 56.6068 27.5855C56.6099 27.4762 56.5731 27.3696 56.5035 27.2859L56.0894 26.7834C56.0204 26.6989 55.9226 26.6434 55.8153 26.6278C55.7079 26.6122 55.5986 26.6377 55.5088 26.6991L54.2543 27.46C54.1736 27.5083 54.0799 27.5294 53.9865 27.5204C53.8932 27.5114 53.8052 27.4726 53.7351 27.4098C53.6024 27.292 53.4641 27.1748 53.3259 27.0625C53.2524 27.0036 53.1993 26.9225 53.1745 26.831C53.1496 26.7396 53.1543 26.6426 53.1877 26.5539L53.7074 25.1722C53.7516 25.0719 53.7578 24.9588 53.7246 24.8543C53.6915 24.7497 53.6214 24.6612 53.5277 24.6055L52.9637 24.2756C52.8696 24.2216 52.7592 24.2044 52.6533 24.2271C52.5474 24.2499 52.4535 24.311 52.3892 24.399L51.4692 25.5624C51.4178 25.6357 51.3435 25.6893 51.2582 25.7146C51.1729 25.7399 51.0817 25.7355 50.9992 25.702C50.9992 25.702 50.6896 25.5736 50.4573 25.4949C50.3683 25.4649 50.2909 25.4071 50.2366 25.3298C50.1822 25.2525 50.1536 25.1598 50.1549 25.065L50.177 23.5883C50.1835 23.4785 50.15 23.3701 50.0828 23.2835C50.0155 23.1969 49.9193 23.1381 49.8121 23.1183L49.1712 23.0066C49.064 22.9879 48.9536 23.0093 48.8609 23.067C48.7682 23.1247 48.6997 23.2146 48.6681 23.3198L48.1926 24.7183C48.162 24.8085 48.1038 24.8864 48.0263 24.9407C47.9488 24.9951 47.8561 25.023 47.7618 25.0203H47.22C47.1258 25.0223 47.0334 24.9942 46.956 24.94C46.8786 24.8857 46.8203 24.8081 46.7892 24.7183L46.3137 23.3198C46.2821 23.2146 46.2135 23.1247 46.1209 23.067C46.0282 23.0093 45.9178 22.9879 45.8106 23.0066L45.1697 23.1183C45.0625 23.1381 44.9662 23.1969 44.899 23.2835C44.8318 23.3701 44.7983 23.4785 44.8048 23.5883L44.8269 25.065C44.8282 25.16 44.7995 25.253 44.7449 25.3304C44.6903 25.4078 44.6127 25.4656 44.5234 25.4954C44.3962 25.5457 44.1197 25.6523 43.987 25.7026C43.8322 25.7584 43.6497 25.7137 43.5004 25.5401L42.5876 24.4046C42.523 24.3169 42.4289 24.2562 42.3231 24.2339C42.2172 24.2116 42.107 24.2292 42.0131 24.2834L41.4491 24.6134C41.3552 24.668 41.2846 24.7557 41.2509 24.8597C41.2172 24.9637 41.2228 25.0766 41.2666 25.1767L41.7864 26.5584C41.8193 26.6471 41.8236 26.744 41.7988 26.8353C41.774 26.9266 41.7213 27.0077 41.6481 27.067C41.5099 27.1787 41.3717 27.2965 41.239 27.4143C41.1689 27.4771 41.0808 27.5158 40.9875 27.5249C40.8942 27.5339 40.8004 27.5128 40.7198 27.4645L39.4835 26.6918C39.3932 26.6319 39.2843 26.6073 39.1773 26.6229C39.0704 26.6384 38.9728 26.6929 38.9029 26.7761L38.4887 27.2786C38.4192 27.3624 38.3824 27.469 38.3855 27.5782C38.3885 27.6875 38.4312 27.7918 38.5053 27.8715L39.4613 28.9847C39.5235 29.0573 39.5608 29.1483 39.5678 29.244C39.5748 29.3397 39.551 29.4352 39.5 29.5162C39.406 29.6651 39.3176 29.8216 39.2346 29.9857C39.1895 30.0696 39.1193 30.137 39.034 30.1782C38.9487 30.2195 38.8527 30.2324 38.7597 30.2152L37.3282 29.936C37.2227 29.9101 37.1115 29.9241 37.0156 29.9756C36.9198 30.0271 36.846 30.1124 36.8084 30.2152L36.5872 30.8293C36.5501 30.9323 36.5516 31.0454 36.5913 31.1474C36.631 31.2494 36.7062 31.3332 36.8029 31.3831L38.0779 32.0994C38.1602 32.1456 38.2257 32.2174 38.2645 32.304C38.3033 32.3907 38.3135 32.4877 38.2936 32.5806C38.2604 32.7593 38.2272 32.9329 38.1996 33.1115C38.1863 33.2058 38.1438 33.2933 38.0783 33.3617C38.0128 33.4301 37.9275 33.4758 37.8346 33.4923L36.3926 33.7268C36.2853 33.7401 36.1864 33.7923 36.1142 33.8736C36.0421 33.9548 36.0015 34.0598 36 34.1689V34.8232C35.9987 34.9332 36.0383 35.0397 36.111 35.1216C36.1837 35.2034 36.2842 35.2548 36.3926 35.2654L37.8346 35.4999C37.9277 35.5157 38.0134 35.5612 38.0791 35.6297C38.1447 35.6982 38.1869 35.7862 38.1996 35.8806C38.2272 36.0593 38.2549 36.2385 38.2936 36.4116C38.3123 36.5045 38.3015 36.601 38.2628 36.6874C38.2241 36.7738 38.1594 36.8457 38.0779 36.8928L36.8012 37.6096C36.7046 37.6595 36.6293 37.7434 36.5896 37.8454C36.5499 37.9473 36.5485 38.0605 36.5856 38.1635L36.8067 38.7776C36.8437 38.8808 36.9174 38.9666 37.0134 39.0181C37.1094 39.0697 37.221 39.0835 37.3265 39.0567L38.758 38.7776C38.8511 38.7594 38.9475 38.7719 39.033 38.8132C39.1185 38.8545 39.1886 38.9224 39.233 39.007C39.3159 39.1633 39.4044 39.3199 39.4984 39.4765C39.548 39.558 39.571 39.6532 39.564 39.7486C39.5571 39.844 39.5206 39.9348 39.4597 40.008L38.5037 41.1224C38.4295 41.202 38.3869 41.3064 38.3838 41.4156C38.3808 41.5249 38.4175 41.6315 38.4871 41.7153L38.9012 42.2177C38.9702 42.3022 39.068 42.3577 39.1754 42.3733C39.2827 42.3889 39.392 42.3635 39.4818 42.302L40.7364 41.5411C40.817 41.4928 40.9108 41.4717 41.0041 41.4807C41.0974 41.4897 41.1855 41.5285 41.2556 41.5913C41.3883 41.7091 41.5265 41.8264 41.6647 41.9386C41.7383 41.9976 41.7913 42.0786 41.8161 42.1701C41.841 42.2615 41.8364 42.3586 41.803 42.4472L41.2832 43.8289C41.2397 43.9293 41.2342 44.0423 41.2679 44.1465C41.3015 44.2507 41.3719 44.3387 41.4657 44.3939L42.0297 44.7239C42.1238 44.7778 42.2342 44.7951 42.3401 44.7723C42.446 44.7496 42.5399 44.6884 42.6042 44.6005L43.5325 43.4482C43.6486 43.303 43.8366 43.2416 43.9859 43.303C44.1739 43.3812 44.3011 43.4258 44.5333 43.5046C44.6227 43.5344 44.7003 43.5922 44.7549 43.6696C44.8095 43.747 44.8382 43.84 44.8369 43.935L44.8147 45.4117C44.8082 45.5215 44.8417 45.6299 44.909 45.7165C44.9762 45.8031 45.0725 45.8619 45.1797 45.8817L45.8205 45.9934C45.9278 46.0121 46.0381 45.9907 46.1308 45.933C46.2235 45.8753 46.2921 45.7854 46.3237 45.6802L46.7992 44.2845C46.8297 44.1943 46.8879 44.1164 46.9654 44.0621C47.0429 44.0077 47.1356 43.9798 47.2299 43.9825H47.7718C47.866 43.9804 47.9584 44.0086 48.0357 44.0628C48.1131 44.1171 48.1715 44.1947 48.2025 44.2845L48.678 45.6802C48.7096 45.7854 48.7782 45.8753 48.8709 45.933C48.9635 45.9907 49.0739 46.0121 49.1812 45.9934L49.822 45.8817C49.9292 45.8619 50.0255 45.8031 50.0927 45.7165C50.1599 45.6299 50.1935 45.5215 50.1869 45.4117L50.1648 43.935C50.1635 43.84 50.1922 43.747 50.2468 43.6696C50.3014 43.5922 50.379 43.5344 50.4684 43.5046C50.7006 43.4258 50.8554 43.3644 50.9992 43.3086C51.143 43.2528 51.3199 43.2528 51.4581 43.4258L52.3981 44.5949C52.4626 44.6832 52.5571 44.7443 52.6635 44.7668C52.7698 44.7892 52.8806 44.7714 52.9748 44.7166L53.5388 44.3866C53.6332 44.3321 53.7041 44.2441 53.7378 44.1397C53.7716 44.0353 53.7656 43.9219 53.7212 43.8217L53.2015 42.4399C53.1686 42.3511 53.1643 42.2542 53.1891 42.1628C53.2139 42.0714 53.2666 41.9902 53.3397 41.9308C53.478 41.8191 53.6162 41.7019 53.7489 41.5841C53.819 41.5212 53.9071 41.4825 54.0004 41.4735C54.0937 41.4644 54.1874 41.4856 54.2681 41.5338L55.5182 42.297C55.6085 42.357 55.7174 42.3815 55.8244 42.366C55.9313 42.3504 56.0289 42.2959 56.0988 42.2127L56.5129 41.7102C56.5825 41.6265 56.6193 41.5199 56.6162 41.4106C56.6131 41.3013 56.5705 41.197 56.4964 41.1173L55.5404 40.0041C55.4782 39.9315 55.4409 39.8406 55.4339 39.7448C55.4269 39.6491 55.4507 39.5537 55.5017 39.4726C55.5956 39.3219 55.6841 39.1654 55.7671 39.0031C55.8121 38.9192 55.8824 38.8518 55.9677 38.8106C56.053 38.7694 56.149 38.7565 56.242 38.7737L57.6735 39.0528C57.779 39.0788 57.8902 39.0647 57.9861 39.0132C58.0819 38.9617 58.1557 38.8765 58.1933 38.7737L58.4145 38.1595C58.4516 38.0566 58.4501 37.9434 58.4104 37.8414C58.3707 37.7395 58.2955 37.6556 58.1988 37.6057L56.9221 36.89C56.8398 36.8438 56.7744 36.772 56.7355 36.6854C56.6967 36.5987 56.6865 36.5017 56.7065 36.4088C56.7396 36.2301 56.7728 36.0565 56.8005 35.8778C56.8137 35.7836 56.8562 35.6961 56.9217 35.6277C56.9873 35.5593 57.0726 35.5136 57.1654 35.4971L58.6074 35.2626C58.7147 35.2493 58.8136 35.1971 58.8858 35.1158C58.958 35.0345 58.9985 34.9296 59 34.8205V34.165C58.994 34.0568 58.9504 33.9543 58.8768 33.8753C58.8033 33.7964 58.7046 33.7462 58.598 33.7335ZM47.5008 26.4607C49.2669 26.46 50.9829 27.0528 52.3783 28.1457C53.7737 29.2387 54.7691 30.7695 55.2075 32.4969C55.2401 32.6286 55.2425 32.7661 55.2146 32.8989C55.1867 33.0317 55.1292 33.1564 55.0464 33.2634C54.9636 33.3704 54.8578 33.4569 54.7369 33.5164C54.616 33.5759 54.4833 33.6068 54.3488 33.6067H48.5298C48.3736 33.6068 48.22 33.565 48.085 33.4856C47.9499 33.4063 47.838 33.2923 47.7607 33.1551L44.88 28.0351C44.8129 27.916 44.7738 27.783 44.7658 27.6463C44.7577 27.5096 44.7809 27.3729 44.8336 27.2466C44.8862 27.1204 44.9669 27.0081 45.0694 26.9184C45.1719 26.8287 45.2934 26.764 45.4246 26.7292C46.1023 26.5497 46.8002 26.4595 47.5008 26.4607ZM39.5387 34.5C39.5378 33.4236 39.7509 32.3579 40.1655 31.3662C40.58 30.3745 41.1877 29.4769 41.9523 28.7268C42.0488 28.6303 42.1661 28.5575 42.295 28.5141C42.4238 28.4708 42.5609 28.458 42.6955 28.4767C42.8301 28.4954 42.9586 28.5452 43.071 28.6222C43.1835 28.6991 43.2769 28.8012 43.344 28.9205L46.2324 34.0534C46.3088 34.1883 46.3489 34.341 46.3489 34.4964C46.3489 34.6518 46.3088 34.8044 46.2324 34.9394L43.3202 40.0588C43.2526 40.1778 43.1588 40.2794 43.046 40.3558C42.9332 40.4323 42.8045 40.4815 42.6699 40.4996C42.5353 40.5177 42.3983 40.5043 42.2697 40.4604C42.141 40.4165 42.0241 40.3433 41.9279 40.2464C41.1708 39.4975 40.5694 38.6034 40.1591 37.6166C39.7489 36.6298 39.5379 35.5702 39.5387 34.5ZM47.5008 42.5393C46.788 42.5411 46.078 42.4482 45.3892 42.2629C45.2581 42.2277 45.1367 42.1625 45.0345 42.0724C44.9322 41.9822 44.8519 41.8695 44.7998 41.743C44.7476 41.6165 44.7249 41.4796 44.7336 41.3428C44.7422 41.206 44.7819 41.0731 44.8496 40.9543L47.7568 35.8432C47.8346 35.7072 47.9465 35.5944 48.0812 35.5159C48.216 35.4375 48.3688 35.3964 48.5243 35.3966H54.3516C54.486 35.3966 54.6187 35.4276 54.7395 35.4871C54.8603 35.5466 54.9661 35.6332 55.0488 35.7402C55.1315 35.8472 55.189 35.9718 55.2169 36.1046C55.2448 36.2373 55.2423 36.3748 55.2097 36.5065C54.7704 38.2335 53.7744 39.7637 52.3786 40.856C50.9829 41.9483 49.2668 42.5405 47.5008 42.5393Z" fill="#000"/>
<path d="M58.598 33.7335L57.156 33.499C57.0629 33.4832 56.9772 33.4377 56.9116 33.3692C56.8459 33.3007 56.8037 33.2127 56.7911 33.1182C56.7634 32.9396 56.7358 32.7604 56.6971 32.5873C56.6784 32.4944 56.6891 32.3979 56.7278 32.3115C56.7666 32.2251 56.8312 32.1532 56.9127 32.1061L58.1894 31.3904C58.2861 31.3405 58.3613 31.2566 58.401 31.1546C58.4407 31.0527 58.4422 30.9395 58.4051 30.8365L58.1839 30.2224C58.1469 30.1192 58.0732 30.0334 57.9772 29.9819C57.8812 29.9303 57.7696 29.9165 57.6641 29.9433L56.2326 30.2224C56.1395 30.2406 56.0432 30.2281 55.9576 30.1868C55.8721 30.1455 55.802 30.0776 55.7577 29.993C55.6747 29.8367 55.5863 29.6801 55.4923 29.5235C55.4426 29.442 55.4197 29.3468 55.4266 29.2514C55.4336 29.156 55.4701 29.0652 55.531 28.992L56.487 27.8788C56.5611 27.7991 56.6037 27.6948 56.6068 27.5855C56.6099 27.4762 56.5731 27.3696 56.5035 27.2859L56.0894 26.7834C56.0204 26.6989 55.9226 26.6434 55.8153 26.6278C55.7079 26.6122 55.5986 26.6377 55.5088 26.6991L54.2543 27.46C54.1736 27.5083 54.0799 27.5294 53.9865 27.5204C53.8932 27.5114 53.8052 27.4726 53.7351 27.4098C53.6024 27.292 53.4641 27.1748 53.3259 27.0625C53.2524 27.0036 53.1993 26.9225 53.1745 26.831C53.1496 26.7396 53.1543 26.6426 53.1877 26.5539L53.7074 25.1722C53.7516 25.0719 53.7578 24.9588 53.7246 24.8543C53.6915 24.7497 53.6214 24.6612 53.5277 24.6055L52.9637 24.2756C52.8696 24.2216 52.7592 24.2044 52.6533 24.2271C52.5474 24.2499 52.4535 24.311 52.3892 24.399L51.4692 25.5624C51.4178 25.6357 51.3435 25.6893 51.2582 25.7146C51.1729 25.7399 51.0817 25.7355 50.9992 25.702C50.9992 25.702 50.6896 25.5736 50.4573 25.4949C50.3683 25.4649 50.2909 25.4071 50.2366 25.3298C50.1822 25.2525 50.1536 25.1598 50.1549 25.065L50.177 23.5883C50.1835 23.4785 50.15 23.3701 50.0828 23.2835C50.0155 23.1969 49.9193 23.1381 49.8121 23.1183L49.1712 23.0066C49.064 22.9879 48.9536 23.0093 48.8609 23.067C48.7682 23.1247 48.6997 23.2146 48.6681 23.3198L48.1926 24.7183C48.162 24.8085 48.1038 24.8864 48.0263 24.9407C47.9488 24.9951 47.8561 25.023 47.7618 25.0203H47.22C47.1258 25.0223 47.0334 24.9942 46.956 24.94C46.8786 24.8857 46.8203 24.8081 46.7892 24.7183L46.3137 23.3198C46.2821 23.2146 46.2135 23.1247 46.1209 23.067C46.0282 23.0093 45.9178 22.9879 45.8106 23.0066L45.1697 23.1183C45.0625 23.1381 44.9662 23.1969 44.899 23.2835C44.8318 23.3701 44.7983 23.4785 44.8048 23.5883L44.8269 25.065C44.8282 25.16 44.7995 25.253 44.7449 25.3304C44.6903 25.4078 44.6127 25.4656 44.5234 25.4954C44.3962 25.5457 44.1197 25.6523 43.987 25.7026C43.8322 25.7584 43.6497 25.7137 43.5004 25.5401L42.5876 24.4046C42.523 24.3169 42.4289 24.2562 42.3231 24.2339C42.2172 24.2116 42.107 24.2292 42.0131 24.2834L41.4491 24.6134C41.3552 24.668 41.2846 24.7557 41.2509 24.8597C41.2172 24.9637 41.2228 25.0766 41.2666 25.1767L41.7864 26.5584C41.8193 26.6471 41.8236 26.744 41.7988 26.8353C41.774 26.9266 41.7213 27.0077 41.6481 27.067C41.5099 27.1787 41.3717 27.2965 41.239 27.4143C41.1689 27.4771 41.0808 27.5158 40.9875 27.5249C40.8942 27.5339 40.8004 27.5128 40.7198 27.4645L39.4835 26.6918C39.3932 26.6319 39.2843 26.6073 39.1773 26.6229C39.0704 26.6384 38.9728 26.6929 38.9029 26.7761L38.4887 27.2786C38.4192 27.3624 38.3824 27.469 38.3855 27.5782C38.3885 27.6875 38.4312 27.7918 38.5053 27.8715L39.4613 28.9847C39.5235 29.0573 39.5608 29.1483 39.5678 29.244C39.5748 29.3397 39.551 29.4352 39.5 29.5162C39.406 29.6651 39.3176 29.8216 39.2346 29.9857C39.1895 30.0696 39.1193 30.137 39.034 30.1782C38.9487 30.2195 38.8527 30.2324 38.7597 30.2152L37.3282 29.936C37.2227 29.9101 37.1115 29.9241 37.0156 29.9756C36.9198 30.0271 36.846 30.1124 36.8084 30.2152L36.5872 30.8293C36.5501 30.9323 36.5516 31.0454 36.5913 31.1474C36.631 31.2494 36.7062 31.3332 36.8029 31.3831L38.0779 32.0994C38.1602 32.1456 38.2257 32.2174 38.2645 32.304C38.3033 32.3907 38.3135 32.4877 38.2936 32.5806C38.2604 32.7593 38.2272 32.9329 38.1996 33.1115C38.1863 33.2058 38.1438 33.2933 38.0783 33.3617C38.0128 33.4301 37.9275 33.4758 37.8346 33.4923L36.3926 33.7268C36.2853 33.7401 36.1864 33.7923 36.1142 33.8736C36.0421 33.9548 36.0015 34.0598 36 34.1689V34.8232C35.9987 34.9332 36.0383 35.0397 36.111 35.1216C36.1837 35.2034 36.2842 35.2548 36.3926 35.2654L37.8346 35.4999C37.9277 35.5157 38.0134 35.5612 38.0791 35.6297C38.1447 35.6982 38.1869 35.7862 38.1996 35.8806C38.2272 36.0593 38.2549 36.2385 38.2936 36.4116C38.3123 36.5045 38.3015 36.601 38.2628 36.6874C38.2241 36.7738 38.1594 36.8457 38.0779 36.8928L36.8012 37.6096C36.7046 37.6595 36.6293 37.7434 36.5896 37.8454C36.5499 37.9473 36.5485 38.0605 36.5856 38.1635L36.8067 38.7776C36.8437 38.8808 36.9174 38.9666 37.0134 39.0181C37.1094 39.0697 37.221 39.0835 37.3265 39.0567L38.758 38.7776C38.8511 38.7594 38.9475 38.7719 39.033 38.8132C39.1185 38.8545 39.1886 38.9224 39.233 39.007C39.3159 39.1633 39.4044 39.3199 39.4984 39.4765C39.548 39.558 39.571 39.6532 39.564 39.7486C39.5571 39.844 39.5206 39.9348 39.4597 40.008L38.5037 41.1224C38.4295 41.202 38.3869 41.3064 38.3838 41.4156C38.3808 41.5249 38.4175 41.6315 38.4871 41.7153L38.9012 42.2177C38.9702 42.3022 39.068 42.3577 39.1754 42.3733C39.2827 42.3889 39.392 42.3635 39.4818 42.302L40.7364 41.5411C40.817 41.4928 40.9108 41.4717 41.0041 41.4807C41.0974 41.4897 41.1855 41.5285 41.2556 41.5913C41.3883 41.7091 41.5265 41.8264 41.6647 41.9386C41.7383 41.9976 41.7913 42.0786 41.8161 42.1701C41.841 42.2615 41.8364 42.3586 41.803 42.4472L41.2832 43.8289C41.2397 43.9293 41.2342 44.0423 41.2679 44.1465C41.3015 44.2507 41.3719 44.3387 41.4657 44.3939L42.0297 44.7239C42.1238 44.7778 42.2342 44.7951 42.3401 44.7723C42.446 44.7496 42.5399 44.6884 42.6042 44.6005L43.5325 43.4482C43.6486 43.303 43.8366 43.2416 43.9859 43.303C44.1739 43.3812 44.3011 43.4258 44.5333 43.5046C44.6227 43.5344 44.7003 43.5922 44.7549 43.6696C44.8095 43.747 44.8382 43.84 44.8369 43.935L44.8147 45.4117C44.8082 45.5215 44.8417 45.6299 44.909 45.7165C44.9762 45.8031 45.0725 45.8619 45.1797 45.8817L45.8205 45.9934C45.9278 46.0121 46.0381 45.9907 46.1308 45.933C46.2235 45.8753 46.2921 45.7854 46.3237 45.6802L46.7992 44.2845C46.8297 44.1943 46.8879 44.1164 46.9654 44.0621C47.0429 44.0077 47.1356 43.9798 47.2299 43.9825H47.7718C47.866 43.9804 47.9584 44.0086 48.0357 44.0628C48.1131 44.1171 48.1715 44.1947 48.2025 44.2845L48.678 45.6802C48.7096 45.7854 48.7782 45.8753 48.8709 45.933C48.9635 45.9907 49.0739 46.0121 49.1812 45.9934L49.822 45.8817C49.9292 45.8619 50.0255 45.8031 50.0927 45.7165C50.1599 45.6299 50.1935 45.5215 50.1869 45.4117L50.1648 43.935C50.1635 43.84 50.1922 43.747 50.2468 43.6696C50.3014 43.5922 50.379 43.5344 50.4684 43.5046C50.7006 43.4258 50.8554 43.3644 50.9992 43.3086C51.143 43.2528 51.3199 43.2528 51.4581 43.4258L52.3981 44.5949C52.4626 44.6832 52.5571 44.7443 52.6635 44.7668C52.7698 44.7892 52.8806 44.7714 52.9748 44.7166L53.5388 44.3866C53.6332 44.3321 53.7041 44.2441 53.7378 44.1397C53.7716 44.0353 53.7656 43.9219 53.7212 43.8217L53.2015 42.4399C53.1686 42.3511 53.1643 42.2542 53.1891 42.1628C53.2139 42.0714 53.2666 41.9902 53.3397 41.9308C53.478 41.8191 53.6162 41.7019 53.7489 41.5841C53.819 41.5212 53.9071 41.4825 54.0004 41.4735C54.0937 41.4644 54.1874 41.4856 54.2681 41.5338L55.5182 42.297C55.6085 42.357 55.7174 42.3815 55.8244 42.366C55.9313 42.3504 56.0289 42.2959 56.0988 42.2127L56.5129 41.7102C56.5825 41.6265 56.6193 41.5199 56.6162 41.4106C56.6131 41.3013 56.5705 41.197 56.4964 41.1173L55.5404 40.0041C55.4782 39.9315 55.4409 39.8406 55.4339 39.7448C55.4269 39.6491 55.4507 39.5537 55.5017 39.4726C55.5956 39.3219 55.6841 39.1654 55.7671 39.0031C55.8121 38.9192 55.8824 38.8518 55.9677 38.8106C56.053 38.7694 56.149 38.7565 56.242 38.7737L57.6735 39.0528C57.779 39.0788 57.8902 39.0647 57.9861 39.0132C58.0819 38.9617 58.1557 38.8765 58.1933 38.7737L58.4145 38.1595C58.4516 38.0566 58.4501 37.9434 58.4104 37.8414C58.3707 37.7395 58.2955 37.6556 58.1988 37.6057L56.9221 36.89C56.8398 36.8438 56.7744 36.772 56.7355 36.6854C56.6967 36.5987 56.6865 36.5017 56.7065 36.4088C56.7396 36.2301 56.7728 36.0565 56.8005 35.8778C56.8137 35.7836 56.8562 35.6961 56.9217 35.6277C56.9873 35.5593 57.0726 35.5136 57.1654 35.4971L58.6074 35.2626C58.7147 35.2493 58.8136 35.1971 58.8858 35.1158C58.958 35.0345 58.9985 34.9296 59 34.8205V34.165C58.994 34.0568 58.9504 33.9543 58.8768 33.8753C58.8033 33.7964 58.7046 33.7462 58.598 33.7335ZM47.5008 26.4607C49.2669 26.46 50.9829 27.0528 52.3783 28.1457C53.7737 29.2387 54.7691 30.7695 55.2075 32.4969C55.2401 32.6286 55.2425 32.7661 55.2146 32.8989C55.1867 33.0317 55.1292 33.1564 55.0464 33.2634C54.9636 33.3704 54.8578 33.4569 54.7369 33.5164C54.616 33.5759 54.4833 33.6068 54.3488 33.6067H48.5298C48.3736 33.6068 48.22 33.565 48.085 33.4856C47.9499 33.4063 47.838 33.2923 47.7607 33.1551L44.88 28.0351C44.8129 27.916 44.7738 27.783 44.7658 27.6463C44.7577 27.5096 44.7809 27.3729 44.8336 27.2466C44.8862 27.1204 44.9669 27.0081 45.0694 26.9184C45.1719 26.8287 45.2934 26.764 45.4246 26.7292C46.1023 26.5497 46.8002 26.4595 47.5008 26.4607ZM39.5387 34.5C39.5378 33.4236 39.7509 32.3579 40.1655 31.3662C40.58 30.3745 41.1877 29.4769 41.9523 28.7268C42.0488 28.6303 42.1661 28.5575 42.295 28.5141C42.4238 28.4708 42.5609 28.458 42.6955 28.4767C42.8301 28.4954 42.9586 28.5452 43.071 28.6222C43.1835 28.6991 43.2769 28.8012 43.344 28.9205L46.2324 34.0534C46.3088 34.1883 46.3489 34.341 46.3489 34.4964C46.3489 34.6518 46.3088 34.8044 46.2324 34.9394L43.3202 40.0588C43.2526 40.1778 43.1588 40.2794 43.046 40.3558C42.9332 40.4323 42.8045 40.4815 42.6699 40.4996C42.5353 40.5177 42.3983 40.5043 42.2697 40.4604C42.141 40.4165 42.0241 40.3433 41.9279 40.2464C41.1708 39.4975 40.5694 38.6034 40.1591 37.6166C39.7489 36.6298 39.5379 35.5702 39.5387 34.5ZM47.5008 42.5393C46.788 42.5411 46.078 42.4482 45.3892 42.2629C45.2581 42.2277 45.1367 42.1625 45.0345 42.0724C44.9322 41.9822 44.8519 41.8695 44.7998 41.743C44.7476 41.6165 44.7249 41.4796 44.7336 41.3428C44.7422 41.206 44.7819 41.0731 44.8496 40.9543L47.7568 35.8432C47.8346 35.7072 47.9465 35.5944 48.0812 35.5159C48.216 35.4375 48.3688 35.3964 48.5243 35.3966H54.3516C54.486 35.3966 54.6187 35.4276 54.7395 35.4871C54.8603 35.5466 54.9661 35.6332 55.0488 35.7402C55.1315 35.8472 55.189 35.9718 55.2169 36.1046C55.2448 36.2373 55.2423 36.3748 55.2097 36.5065C54.7704 38.2335 53.7744 39.7637 52.3786 40.856C50.9829 41.9483 49.2668 42.5405 47.5008 42.5393Z" stroke="#000" stroke-width="0.4" mask="url(#path-4-outside-1)"/>
</svg>